<svg id="ef7f5e9d-09f1-41bd-b225-903c8d2a84f8" xmlns="http://www.w3.org/2000/svg" viewBox="0 0 774.19 80.72"><title>logo_bird</title><path d="M45.6,41.87l-3.74-1.6c-6.78-2.94-7.42-4.08-7.42-6.37,0-2.13,1.61-3.45,4.2-3.45s4.76.8,7,4.9l1.55,2.76L63.94,27.38l-1.39-2.45c-5.24-9.21-12.83-13.5-23.91-13.5C24,11.43,13.71,20.8,13.71,34.22c0,14.9,10,21.17,19.8,25.33l3.73,1.6c7.29,3.19,9.14,4.32,9.14,7.24s-3.62,4.41-7.2,4.41c-5.36,0-8.9-2.22-12.25-7.68l-1.51-2.48L8.26,72.58l1.27,2.51C15,85.86,25.9,92,39.5,92c16.9,0,27.83-9.37,27.83-23.87C67.33,54,59,47.62,45.6,41.87Z" transform="translate(-8.26 -11.32)" fill="#fc5144"/><path d="M99.14,12.28H76V91.07H97V74.47h2.16c21.93,0,35.54-11.89,35.54-31S121.07,12.28,99.14,12.28ZM97,31.41h1.74c12.85,0,14.59,6.08,14.59,12,0,6.19-1.77,11.91-14.59,11.91H97Z" transform="translate(-8.26 -11.32)" fill="#fc5144"/><path d="M181.61,11.32c-22.81,0-40.68,17.73-40.68,40.36S158.8,92,181.61,92s40.68-17.73,40.68-40.36S204.42,11.32,181.61,11.32Zm0,61.38c-11.37,0-19.31-8.65-19.31-21s7.94-21,19.31-21,19.3,8.64,19.3,21S193,72.7,181.61,72.7Z" transform="translate(-8.26 -11.32)" fill="#fc5144"/><polygon points="218.33 20.09 239.11 20.09 239.11 79.75 260.06 79.75 260.06 20.09 280.83 20.09 280.83 0.96 218.33 0.96 218.33 20.09" fill="#fc5144"/><polygon points="305.42 20.09 326.2 20.09 326.2 79.75 347.15 79.75 347.15 20.09 367.93 20.09 367.93 0.96 305.42 0.96 305.42 20.09" fill="#fc5144"/><polygon points="422.16 38.24 396.94 38.24 396.94 0.96 375.99 0.96 375.99 79.75 396.94 79.75 396.94 57.58 422.16 57.58 422.16 79.75 443.11 79.75 443.11 0.96 422.16 0.96 422.16 38.24" fill="#fc5144"/><polygon points="476.3 56.08 505.54 56.08 505.54 37.28 476.3 37.28 476.3 20.09 509.51 20.09 509.51 0.96 455.35 0.96 455.35 79.75 511 79.75 511 60.63 476.3 60.63 476.3 56.08" fill="#fc5144"/><path d="M594.28,47a16,16,0,0,0,6-12.92c0-12.85-9.95-21.83-24.18-21.83H545V91.07H577.4c16.39,0,27.4-10.23,27.4-25.47C604.8,57.08,601.12,50.67,594.28,47Zm-19.77-7.86h-8.6V31.41h9.35c2.9,0,4.31,1.27,4.31,3.88C579.57,38.79,576,39.17,574.51,39.17Zm-8.6,18.7h10c5,0,7.84,2.54,7.84,7s-2.61,7.1-7,7.1H565.91Z" transform="translate(-8.26 -11.32)" fill="#fc5144"/><rect x="605.36" y="0.96" width="20.95" height="78.79" fill="#fc5144"/><path d="M705.67,42.79c0-19.1-13.29-30.51-35.54-30.51H647V91.07h21V73h2.17c.93,0,1.87,0,2.8-.12L684.8,91.07h24.51L693,66.51C701.4,61.56,705.67,53.59,705.67,42.79ZM668,31.41h1.74c12.15,0,14.59,4.35,14.59,11.38C684.29,50,682,54,669.7,54H668Z" transform="translate(-8.26 -11.32)" fill="#fc5144"/><path d="M741.13,12.28H715.77V91.07h25.36c24.33,0,41.32-16.2,41.32-39.39S765.46,12.28,741.13,12.28Zm-4.42,19.13h3.67c13.28,0,20.59,7.2,20.59,20.27S753.66,72,740.38,72h-3.67Z" transform="translate(-8.26 -11.32)" fill="#fc5144"/><path d="M181.61,69.72a17,17,0,0,0,6.09-1.09c-.74-4.5-1.17-8.93,0-11.84.06-.15.3-.58.53-.6,1.15-.12,4.13.37,5.65-.39,1.17-.58-3.58-3.6-3.47-4a16.12,16.12,0,0,0,.31-5.64c-.46-5-2.56-7.8-6.84-8-5.95-.29-8.13,4.42-10.1,8.44-1.09,2.22-1.61,4.37-3,8a39.81,39.81,0,0,1-3.35,6.84A15.28,15.28,0,0,0,181.61,69.72Zm.14-21.89c3.14-.1,2,5.28.1,5.07S179.08,47.91,181.75,47.83Z" transform="translate(-8.26 -11.32)" fill="#fc5144"/></svg>