<svg id="be5fb67f-066d-4373-8cad-5e0128b15c12" data-name="Layer 1" xmlns="http://www.w3.org/2000/svg" viewBox="0 0 768 80.07"><title>logo</title><path d="M183.32,67.58a17.28,17.28,0,0,0,5.28-.81c-.87-4.3-1.55-8.71-.45-11.53,0-.13.24-.51.45-.54,1-.12,3.57.24,4.87-.44,1-.53-3.17-3-3.08-3.41a14,14,0,0,0,.16-4.88c-.5-4.29-2.37-6.69-6.07-6.79-5.15-.13-6.95,4-8.57,7.5-.9,1.94-1.3,3.8-2.44,6.94a30.61,30.61,0,0,1-3.39,7A15.2,15.2,0,0,0,183.32,67.58Zm-.53-20c2.72-.15,1.86,4.52.19,4.38S180.49,47.73,182.79,47.61Z" transform="translate(-11.36 -9.64)" fill="#fc5144"/><path d="M48.4,40l-3.71-1.59c-6.73-2.91-7.36-4-7.36-6.32,0-2.11,1.6-3.43,4.17-3.43s4.71.8,7,4.87L50,36.22,66.59,25.57l-1.38-2.43C60,14,52.48,9.75,41.5,9.75c-14.57,0-24.74,9.3-24.74,22.61,0,14.78,9.93,21,19.64,25.13l3.7,1.59c7.23,3.16,9.07,4.28,9.07,7.18S45.58,70.63,42,70.63c-5.32,0-8.83-2.2-12.15-7.62l-1.5-2.45-17,9.85,1.26,2.49C18,83.58,28.86,89.71,42.35,89.71,59.12,89.71,70,80.42,70,66,70,52,61.7,45.65,48.4,40Z" transform="translate(-11.36 -9.64)" fill="#fc5144"/><path d="M101.51,10.6H78.59V88.76H99.37V72.29h2.14c21.75,0,35.26-11.8,35.26-30.79S123.26,10.6,101.51,10.6Zm-2.14,19h1.72c12.75,0,14.47,6,14.47,11.93,0,6.13-1.75,11.81-14.47,11.81H99.37Z" transform="translate(-11.36 -9.64)" fill="#fc5144"/><path d="M183.32,9.64c-22.63,0-40.36,17.59-40.36,40s17.73,40,40.36,40,40.35-17.58,40.35-40S206,9.64,183.32,9.64Zm0,60.89c-11.28,0-19.15-8.58-19.15-20.85S172,28.83,183.32,28.83s19.15,8.57,19.15,20.85S194.59,70.53,183.32,70.53Z" transform="translate(-11.36 -9.64)" fill="#fc5144"/><polygon points="216.58 19.93 237.19 19.93 237.19 79.12 257.98 79.12 257.98 19.93 278.59 19.93 278.59 0.96 216.58 0.96 216.58 19.93" fill="#fc5144"/><polygon points="302.98 19.93 323.59 19.93 323.59 79.12 344.37 79.12 344.37 19.93 364.99 19.93 364.99 0.96 302.98 0.96 302.98 19.93" fill="#fc5144"/><polygon points="418.78 37.93 393.76 37.93 393.76 0.96 372.99 0.96 372.99 79.12 393.76 79.12 393.76 57.12 418.78 57.12 418.78 79.12 439.56 79.12 439.56 0.96 418.78 0.96 418.78 37.93" fill="#fc5144"/><polygon points="472.49 55.63 501.5 55.63 501.5 36.98 472.49 36.98 472.49 19.93 505.43 19.93 505.43 0.96 451.71 0.96 451.71 79.12 506.92 79.12 506.92 60.14 472.49 60.14 472.49 55.63" fill="#fc5144"/><path d="M592.69,45.06a15.79,15.79,0,0,0,6-12.81c0-12.75-9.87-21.65-24-21.65h-30.9V88.76h32.17c16.26,0,27.18-10.15,27.18-25.27C603.12,55,599.47,48.68,592.69,45.06Zm-19.62-7.79h-8.52v-7.7h9.27c2.88,0,4.27,1.26,4.27,3.85C578.09,36.89,574.58,37.27,573.07,37.27Zm-8.52,18.55h9.91c4.94,0,7.78,2.52,7.78,6.93s-2.6,7-6.93,7H564.55Z" transform="translate(-11.36 -9.64)" fill="#fc5144"/><rect x="600.51" y="0.96" width="20.78" height="78.16" fill="#fc5144"/><path d="M703.18,40.86c0-18.95-13.18-30.26-35.25-30.26H645V88.76h20.78v-18h2.15c.92,0,1.86,0,2.78-.12l11.77,18.08H706.8L690.59,64.39C699,59.48,703.18,51.58,703.18,40.86Zm-37.4-11.29h1.72c12.06,0,14.48,4.32,14.48,11.29,0,7.18-2.31,11.07-14.48,11.07h-1.72Z" transform="translate(-11.36 -9.64)" fill="#fc5144"/><path d="M738.36,10.6H713.2V88.76h25.16c24.14,0,41-16.07,41-39.08S762.5,10.6,738.36,10.6Zm-4.38,19h3.64c13.17,0,20.42,7.14,20.42,20.11s-7.25,20.1-20.42,20.1H734Z" transform="translate(-11.36 -9.64)" fill="#fc5144"/></svg>